HIERARCHY
ROOT pelvis
{
  OFFSET 0 100 0
  CHANNELS 6 Xposition Yposition Zposition Zrotation Xrotation Yrotation
  JOINT pelvis_right_femur
  {
    OFFSET -10.78128 -3.44521 -0.5502486
    CHANNELS 3 Zrotation Xrotation Yrotation
    JOINT right_femur_tibia
    {
      OFFSET -0.8047443 -44.0398 -0.1307829
      CHANNELS 3 Zrotation Xrotation Yrotation
      JOINT right_tibia_foot
      {
        OFFSET 3.006224 -47.83518 -5
        CHANNELS 3 Zrotation Xrotation Yrotation
        End Site
        {
          OFFSET 0 -5 15
        }
      }
    }
  }
  JOINT pelvis_left_femur
  {
    OFFSET 10.78128 -3.44521 -0.5502486
    CHANNELS 3 Zrotation Xrotation Yrotation
    JOINT left_femur_tibia
    {
      OFFSET 0.8047443 -44.0398 -0.1307829
      CHANNELS 3 Zrotation Xrotation Yrotation
      JOINT left_tibia_foot
      {
        OFFSET -4.370144 -48.10324 -4.275266
        CHANNELS 3 Zrotation Xrotation Yrotation
        End Site
        {
          OFFSET 0 -5 15
        }
      }
    }
  }
  JOINT pelvis_spine1
  {
    OFFSET 0 6.468898 -3.129235
    CHANNELS 3 Zrotation Xrotation Yrotation
    JOINT spine1
    {
      OFFSET 0 23.15396 4.99043
      CHANNELS 3 Zrotation Xrotation Yrotation
      JOINT spine2
      {
        OFFSET 0 20.79997 -5.064912
        CHANNELS 3 Zrotation Xrotation Yrotation
        JOINT neck
        {
          OFFSET 0 14.38658 9.616178
          CHANNELS 3 Zrotation Xrotation Yrotation
          End Site
          {
            OFFSET 0 20 0
          }
        }
      }
      JOINT right_manubrium
      {
        OFFSET -5.722621 16.35077 3.967754
        CHANNELS 3 Zrotation Xrotation Yrotation
        JOINT right_clavicle
        {
          OFFSET -13.16364 1.694482 -4.693211
          CHANNELS 3 Zrotation Xrotation Yrotation
          JOINT right_humerus
          {
            OFFSET -28.5034 -0.3100689 -2.792744
            CHANNELS 3 Zrotation Xrotation Yrotation
            JOINT right_radius
            {
              OFFSET -25.15693 0.02248979 -1.271978
              CHANNELS 3 Zrotation Xrotation Yrotation
              End Site
              {
                OFFSET -15 0 0
              }
            }
          }
        }
      }
      JOINT left_manubrium
      {
        OFFSET 5.722621 16.35077 3.967754
        CHANNELS 3 Zrotation Xrotation Yrotation
        JOINT left_clavicle
        {
          OFFSET 13.16364 1.694482 -4.693211
          CHANNELS 3 Zrotation Xrotation Yrotation
          JOINT left_humerus
          {
            OFFSET 29.39168 -1.063119 -2.237045
            CHANNELS 3 Zrotation Xrotation Yrotation
            JOINT left_radius
            {
              OFFSET 24.59957 -0.9528479 0.9047498
              CHANNELS 3 Zrotation Xrotation Yrotation
              End Site
              {
                OFFSET 15 -0 -0
              }
            }
          }
        }
      }
    }
  }
}
MOTION
Frames: 7
Frame Time: 0.0416666666667
-326.099 122.1339 2826.092 -3.04776 -6.147677 -34.59085 1.736584 17.06035 1.818472 -0 22.27288 -0 -3.321045 -10.29775 -1.139028 0.1489591 -23.07941 -5.228398 -0 12.35386 -0 -2.725382 -7.973708 19.66875 1.003575 -2.36741 8.474193 -1.216768 15.13916 -3.445356 1.471705 21.80848 3.111221 1.641019 -20.21143 4.963646 -3.72443 -29.77349 12.04213 88.9902 17.15829 -7.504177 -0 0 26.20143 -23.08453 9.160465 12.48492 3.508402 -20.69061 -6.359939 -97.23111 11.54376 36.47525 0 0 -3.597708 9.195886 15.08616 2.001834
-328.6976 121.9355 2831.889 -3.171553 -6.850088 -34.4431 0.7960608 15.1882 2.377294 -0 30.77075 -0 -2.182667 -7.150844 -2.046652 -1.204666 -19.67434 -6.21149 -0 13.39987 -0 -3.146779 -8.810459 19.40203 0.8964217 -2.271896 8.274204 -1.155836 14.98824 -3.550024 1.492888 21.85596 3.210143 1.689694 -20.04313 5.04241 -3.543609 -29.21723 12.0189 88.98426 17.41635 -7.864231 -0 0 25.52975 -23.14585 9.296598 12.4298 3.613182 -20.75099 -6.338251 -96.70079 11.81318 35.40244 0 0 -4.232979 9.192934 14.88824 1.948191
-331.3175 122.2583 2837.721 -3.22129 -7.415615 -34.03828 0.05323536 12.26855 2.857722 -0 38.51918 -0 -1.181576 -4.130816 -3.054692 -2.565735 -15.45057 -7.271497 -0 14.94079 -0 -3.496134 -9.794249 19.04261 0.8069097 -2.207008 7.914966 -1.008532 14.86187 -3.821961 1.506479 21.90286 3.329154 1.735459 -19.94776 5.148806 -3.420831 -28.48699 11.98307 89.32838 17.63575 -8.779484 -0 0 24.35539 -22.99417 9.407844 12.15113 3.791005 -21.08508 -6.39625 -95.85516 12.10736 33.76734 0 0 -5.541075 9.454889 14.75071 1.565125
-333.9144 123.0043 2843.489 -3.143266 -7.695084 -33.4224 -0.3941867 8.371596 3.179754 -0 44.39729 -0 -0.4972153 -1.683972 -3.982514 -3.79252 -10.73906 -8.384607 -0 16.26483 -0 -3.618257 -10.95818 18.67207 0.738649 -2.174397 7.435441 -0.7934022 14.76626 -4.226586 1.511452 21.94591 3.459507 1.777766 -19.92453 5.272238 -3.356028 -27.64752 11.94021 89.97105 17.7983 -10.13469 -0 0 22.80356 -22.66149 9.487281 11.68922 4.024126 -21.64652 -6.521278 -94.78313 12.37197 31.72342 0 0 -7.366396 9.949207 14.67387 0.8955498
-336.4384 123.9917 2849.083 -2.91685 -7.575729 -32.66768 -0.4890948 3.639028 3.311541 -0 47.51577 -0 -0.2931224 -0.1604621 -4.661588 -4.774136 -5.878936 -9.544333 -0 16.85485 -0 -3.400932 -12.30048 18.36419 0.6894655 -2.17 6.87493 -0.5307818 14.69943 -4.724765 1.508215 21.98391 3.595542 1.818147 -19.9614 5.4041 -3.338226 -26.74923 11.8955 90.83846 17.89738 -11.79701 -0 0 20.99872 -22.1945 9.534537 11.09487 4.294704 -22.37595 -6.695258 -93.57104 12.56836 29.41317 0 0 -9.54363 10.62806 14.64421 -0.0003805063
-338.8508 124.9964 2854.397 -2.561945 -7.018791 -31.86086 -0.2337621 -1.702874 3.264579 -0 47.45366 -0 -0.6480458 0.2870488 -4.995388 -5.441124 -1.171144 -10.73068 -0 16.46298 -0 -2.81386 -13.78083 18.16073 0.6539536 -2.186255 6.271177 -0.2411596 14.65446 -5.276399 1.498193 22.01702 3.733583 1.858833 -20.04012 5.537637 -3.350829 -25.83151 11.85293 91.84538 17.93769 -13.62993 -0 0 19.05943 -21.6461 9.554316 10.42279 4.585666 -23.20818 -6.897844 -92.29932 12.67679 26.96777 0 0 -11.91008 11.43341 14.64174 -1.050836
-341.1381 125.807 2859.361 -2.132785 -6.083065 -31.08421 0.3084797 -7.358676 3.07207 -0 44.39063 -0 -1.505698 -0.233798 -5.001895 -5.775571 3.171607 -11.87987 -0 15.15645 -0 -1.935624 -15.32376 18.0459 0.6256713 -2.214209 5.657237 0.0568692 14.62238 -5.84488 1.483417 22.04623 3.871222 1.90172 -20.1408 5.668016 -3.376331 -24.92359 11.81478 92.9087 17.93285 -15.51013 -0 0 17.08909 -21.06679 9.554672 9.724035 4.882129 -24.08081 -7.109696 -91.03575 12.69598 24.49947 0 0 -14.3219 12.30446 14.64631 -2.181072
